<svg width="32" height="32" viewBox="0 0 235 178" fill="none" xmlns="http://www.w3.org/2000/svg">
  <path d="M0 112.5C1.0003e-06 101.058 2.97468 89.8123 8.63216 79.8667C14.2896 69.9211 22.4356 61.6172 32.2706 55.7697C42.1057 49.9222 53.292 46.732 64.732 46.5122C76.1721 46.2924 87.4727 49.0505 97.5251 54.5158L85 77.5C79.0375 74.2583 72.0334 73.2297 65.2479 73.3601C58.4624 73.4904 51.8274 75.3827 45.9938 78.851C40.1602 82.3194 35.3286 87.2448 31.9729 93.1439C28.6172 99.0431 26.8528 105.713 26.8528 112.5L0 112.5Z" fill="#3B82F6"/>
  <path d="M235 123.5C232 140.775 222.637 154.88 212.557 163.049C202.478 171.219 190.214 176.236 177.299 177.474C164.384 178.713 151.39 176.117 139.942 170.012C139.942 170.012 127 161.775 123 155.275L130 144.275L136.558 130.384C140.216 137.154 145.788 142.696 152.578 146.318C159.369 149.939 167.076 151.479 174.736 150.744C182.397 150.01 189.671 147.034 195.649 142.188C201.628 137.342 206.045 130.842 208.35 123.5H235Z" fill="#3B82F6"/>
  <path d="M106 60.5V9.91417C106 6.58084 108.9 0 118.5 0C128.1 0 131 6.58084 131 9.91417V52.5C122.5 58.6667 104.4 76.8 102 94C99.3333 89.5 91 80 85 77.5L97.5 54.5C99.3333 55.1667 102.8 57.7 106 60.5Z" fill="#3B82F6"/>
  <path d="M105 111.5C105 95.8271 110.578 80.6656 120.734 68.7291C130.891 56.7925 144.964 48.86 160.435 46.3512C175.906 43.8424 191.765 46.9211 205.174 55.0363C218.582 63.1514 232.5 79.5 234.5 99.129L208.141 99.1291C205.203 90.3092 199.223 82.8226 191.27 78.0092C183.317 73.1958 173.91 71.3697 164.734 72.8578C155.557 74.3458 147.21 79.0509 141.185 86.131C135.161 93.211 131.853 102.204 131.853 111.5L105 111.5Z" fill="#A855F7"/>
  <path d="M131.999 111.214C132.075 128.718 125.194 145.536 112.871 157.966C100.547 170.397 83.79 177.424 66.2859 177.499C48.7818 177.575 31.9645 170.694 19.5336 158.371C7.10267 146.047 0.0764568 129.29 0.000619433 111.786L26.8532 111.67C26.8982 122.052 31.0657 131.991 38.439 139.301C45.8122 146.611 55.7872 150.692 66.1696 150.647C76.552 150.602 86.4912 146.434 93.8009 139.061C101.111 131.688 105.192 121.713 105.147 111.33L131.999 111.214Z" fill="#A855F7"/>
</svg>
