<svg width="236" height="178" viewBox="0 0 236 178" fill="none" xmlns="http://www.w3.org/2000/svg">
<path d="M235.86 124C233.373 137.454 226.767 149.81 216.942 159.35C206.943 169.059 194.126 175.354 180.329 177.332C166.532 179.31 152.463 176.869 140.139 170.359C133.272 166.732 127.144 161.944 122 156.252C128.979 149.114 133.797 139.853 135.389 129.527C139.082 137.025 145.051 143.164 152.441 147.067C159.847 150.979 168.301 152.446 176.591 151.258C184.881 150.069 192.583 146.287 198.592 140.452C203.308 135.873 206.79 130.213 208.763 124H235.86ZM118.5 0C125.404 0 131 5.59644 131 12.5V52.6377C116.273 61.592 105.301 76.1066 100.996 93.2666L100.965 93.2842C96.7816 85.469 90.1003 79.2807 81.9883 75.707C73.8763 72.1334 64.8009 71.3804 56.2109 73.5684C47.6207 75.7565 40.0106 80.7601 34.5967 87.7793C29.2057 94.769 26.3023 103.357 26.3428 112.182C26.3681 117.323 27.3923 122.412 29.3604 127.163C31.3534 131.975 34.2745 136.347 37.957 140.029C41.6396 143.712 46.0117 146.633 50.8232 148.626C55.6349 150.619 60.7919 151.646 66 151.646C71.2081 151.646 76.3651 150.619 81.1768 148.626C85.9883 146.633 90.3604 143.712 94.043 140.029C97.7255 136.347 100.647 131.975 102.64 127.163C104.633 122.352 105.659 117.194 105.659 111.986H105.744C105.726 95.5844 112.068 79.84 123.081 67.6807C134.121 55.4916 149.315 47.8626 165.685 46.2891C182.055 44.7156 198.34 49.6234 211.5 59.4863C223.917 70.299 232.416 83.4578 235.5 99.6113H208.5C205.5 87.9868 195.784 80.252 195.784 80.252C187.877 74.3255 178.042 71.5643 168.205 72.5098C158.369 73.4553 149.239 78.0392 142.605 85.3633C135.972 92.6875 131.97 102.225 132 112.106H131.999C131.983 120.733 130.277 129.273 126.976 137.243C123.659 145.251 118.798 152.527 112.669 158.655C106.54 164.784 99.2643 169.645 91.2568 172.962C83.2494 176.279 74.6672 177.986 66 177.986C57.3328 177.986 48.7506 176.279 40.7432 172.962C32.7357 169.645 25.4597 164.784 19.3311 158.655C13.2024 152.527 8.3412 145.251 5.02441 137.243C1.77144 129.39 0.0672862 120.983 0.00292969 112.486L0.00195312 112.487C0.00165748 112.447 0.00217592 112.407 0.00195312 112.367C0.00122141 112.24 -1.10933e-08 112.113 0 111.986H0.00292969C0.00587516 97.4106 4.83155 83.2404 13.7393 71.6914C22.749 60.0101 35.4123 51.6835 49.708 48.042C64.0038 44.4005 79.1081 45.6541 92.6084 51.6016C97.3989 53.712 101.889 56.3708 106 59.5039V12.5C106 5.59644 111.596 0 118.5 0Z" fill="url(#paint0_linear_1317_497)"/>
<defs>
<linearGradient id="paint0_linear_1317_497" x1="0" y1="89" x2="235.86" y2="89" gradientUnits="userSpaceOnUse">
<stop stop-color="#0EA5E9"/>
<stop offset="1" stop-color="#010066"/>
</linearGradient>
</defs>
</svg>
